<?xml version="1.0" standalone="no"?>
<!DOCTYPE svg PUBLIC "-//W3C//DTD SVG 20010904//EN"
 "http://www.w3.org/TR/2001/REC-SVG-20010904/DTD/svg10.dtd">
<svg version="1.0" xmlns="http://www.w3.org/2000/svg"
 width="75.000000pt" height="75.000000pt" viewBox="0 0 225.000000 225.000000"
 preserveAspectRatio="xMidYMid meet">

<g transform="translate(0.000000,225.000000) scale(0.100000,-0.100000)"
fill="#000000" stroke="none">
<path d="M955 2235 c-80 -21 -185 -63 -255 -101 -76 -42 -209 -139 -216 -159
-7 -18 13 -55 30 -55 7 0 44 25 82 55 64 52 271 165 301 165 8 0 2 -18 -17
-50 -106 -180 -158 -401 -147 -624 15 -293 126 -538 341 -751 144 -143 314
-240 514 -292 76 -19 131 -26 252 -30 l154 -6 -49 -45 c-271 -246 -680 -328
-1041 -207 -257 86 -484 284 -606 530 -76 153 -110 296 -110 470 0 144 11 215
60 359 35 105 36 109 17 122 -28 21 -37 14 -67 -46 -58 -120 -94 -325 -85
-485 17 -295 127 -544 332 -750 380 -381 980 -440 1432 -139 97 64 263 224
263 253 0 36 -24 44 -87 29 -35 -8 -115 -12 -203 -12 -123 1 -160 6 -245 28
-189 51 -354 147 -492 285 -357 360 -410 912 -128 1336 57 86 67 118 39 129
-9 3 -16 6 -17 5 -1 0 -25 -6 -52 -14z"/>
<path d="M365 1854 c-13 -20 -15 -32 -8 -43 25 -40 88 -8 81 41 -5 36 -50 37
-73 2z"/>
</g>
</svg>
