<?xml version="1.0" standalone="no"?>
<!DOCTYPE svg PUBLIC "-//W3C//DTD SVG 20010904//EN"
 "http://www.w3.org/TR/2001/REC-SVG-20010904/DTD/svg10.dtd">
<svg version="1.0" xmlns="http://www.w3.org/2000/svg"
 width="70.000000pt" height="70.000000pt" viewBox="0 0 500.000000 500.000000"
 preserveAspectRatio="xMidYMid meet">

<g transform="translate(0.000000,500.000000) scale(0.100000,-0.100000)"
fill="#000000" stroke="none">
<path d="M2436 4348 c-14 -19 -16 -69 -16 -340 0 -305 1 -319 20 -338 11 -11
27 -20 35 -20 8 0 24 9 35 20 19 19 20 33 20 343 0 301 -1 325 -18 340 -26 23
-58 21 -76 -5z"/>
<path d="M3358 4128 c-31 -24 -328 -547 -328 -577 0 -11 11 -28 25 -37 22 -15
27 -15 48 -1 23 15 337 551 337 575 0 16 -37 52 -53 52 -7 0 -20 -6 -29 -12z"/>
<path d="M1532 4098 c-7 -7 -12 -21 -12 -33 0 -20 287 -533 318 -567 8 -10 25
-18 37 -18 23 0 55 28 55 49 0 13 -50 103 -205 371 -122 210 -121 210 -153
210 -15 0 -33 -5 -40 -12z"/>
<path d="M3774 3327 c-144 -84 -269 -158 -278 -166 -32 -26 -7 -92 35 -91 8 0
140 74 294 163 253 146 280 165 283 190 4 36 -13 57 -47 56 -15 0 -139 -66
-287 -152z"/>
<path d="M874 3415 c-13 -20 -14 -31 -7 -48 12 -25 532 -329 573 -335 16 -2
32 4 44 17 31 34 15 62 -61 106 -370 214 -499 285 -514 285 -10 0 -26 -11 -35
-25z"/>
<path d="M2300 3336 c-105 -28 -192 -65 -268 -113 -80 -51 -221 -195 -270
-278 -172 -291 -161 -656 29 -930 172 -250 444 -386 743 -372 392 18 706 267
807 642 18 64 22 108 22 215 0 107 -4 151 -22 215 -85 316 -315 539 -640 621
-128 33 -280 33 -401 0z m371 -110 c224 -56 399 -196 503 -404 93 -184 93
-460 0 -644 -132 -264 -395 -427 -687 -428 -297 0 -570 184 -686 463 -43 106
-54 177 -49 324 4 110 9 140 35 210 44 120 88 187 188 289 102 102 201 161
327 194 106 28 247 26 369 -4z"/>
<path d="M3666 2558 c-21 -30 -20 -44 4 -68 19 -19 33 -20 338 -20 345 0 362
3 362 55 0 53 -17 55 -367 55 -321 0 -322 0 -337 -22z"/>
<path d="M650 2510 c-11 -11 -20 -27 -20 -35 0 -8 9 -24 20 -35 19 -19 33 -20
344 -20 324 0 325 0 340 22 22 31 20 54 -6 72 -19 14 -69 16 -340 16 -305 0
-319 -1 -338 -20z"/>
<path d="M3514 1945 c-31 -47 -30 -47 330 -254 126 -72 238 -131 248 -131 24
0 51 44 43 69 -3 12 -39 40 -78 63 -306 179 -485 278 -504 278 -13 0 -29 -11
-39 -25z"/>
<path d="M1185 1774 c-148 -86 -276 -163 -282 -172 -26 -32 -4 -82 36 -82 17
0 532 290 564 318 9 8 17 25 17 37 0 24 -29 55 -51 55 -8 0 -135 -71 -284
-156z"/>
<path d="M3098 1509 c-36 -21 -19 -63 133 -330 83 -145 155 -270 161 -276 13
-16 60 -17 76 -1 25 25 9 65 -105 261 -220 380 -216 375 -265 346z"/>
<path d="M1883 1478 c-18 -21 -126 -205 -267 -455 -61 -107 -65 -132 -24 -154
16 -9 26 -7 46 8 31 23 331 539 332 570 0 21 -33 53 -55 53 -7 0 -21 -10 -32
-22z"/>
<path d="M2490 1330 c-19 -19 -20 -33 -20 -340 0 -307 1 -321 20 -340 25 -25
45 -25 70 0 19 19 20 33 20 340 0 307 -1 321 -20 340 -11 11 -27 20 -35 20 -8
0 -24 -9 -35 -20z"/>
</g>
</svg>
